<?xml version="1.0" standalone="no"?>
<!DOCTYPE svg PUBLIC "-//W3C//DTD SVG 20010904//EN"
 "http://www.w3.org/TR/2001/REC-SVG-20010904/DTD/svg10.dtd">
<svg version="1.0" xmlns="http://www.w3.org/2000/svg"
 width="535.000000pt" height="535.000000pt" viewBox="0 0 535.000000 535.000000"
 preserveAspectRatio="xMidYMid meet">
<metadata>
Created by potrace 1.11, written by Peter Selinger 2001-2013
</metadata>
<g transform="translate(0.000000,535.000000) scale(0.100000,-0.100000)"
fill="#000000" stroke="none">
<path d="M2557 5343 c-1 0 -38 -4 -82 -6 -44 -3 -94 -8 -110 -11 -17 -2 -50
-7 -75 -10 -25 -3 -56 -8 -70 -11 -14 -3 -41 -8 -60 -11 -19 -3 -62 -13 -95
-21 -33 -8 -64 -16 -70 -17 -5 -1 -16 -5 -22 -9 -7 -5 -13 -6 -13 -3 0 3 -12
1 -27 -5 -16 -6 -37 -13 -48 -15 -28 -7 -37 -10 -60 -19 -11 -4 -56 -21 -100
-38 -44 -16 -123 -50 -175 -75 -52 -25 -97 -46 -100 -47 -6 -1 -53 -27 -100
-54 -19 -12 -50 -29 -67 -38 -18 -9 -33 -20 -33 -25 0 -4 -5 -8 -11 -8 -6 0
-32 -15 -57 -32 -47 -33 -57 -41 -89 -68 -10 -8 -21 -15 -24 -15 -4 0 -26 -17
-48 -37 -23 -20 -41 -34 -41 -31 0 3 -18 -13 -40 -36 -22 -22 -42 -41 -45 -41
-8 0 -185 -174 -185 -181 0 -3 -29 -37 -65 -75 -36 -38 -65 -75 -65 -82 0 -7
-7 -15 -15 -18 -8 -4 -12 -10 -9 -15 3 -5 1 -9 -5 -9 -5 0 -19 -16 -31 -35
-12 -20 -29 -42 -37 -50 -8 -8 -12 -15 -9 -15 3 0 -6 -12 -19 -26 -14 -15 -22
-30 -19 -35 3 -5 1 -9 -5 -9 -5 0 -13 -10 -17 -22 -4 -13 -10 -25 -13 -28 -25
-19 -139 -242 -211 -415 -4 -11 -18 -49 -30 -85 -12 -36 -25 -72 -28 -80 -3
-8 -6 -19 -7 -25 -2 -5 -10 -35 -19 -66 -9 -31 -19 -66 -21 -78 -2 -13 -6 -30
-9 -39 -6 -19 -15 -63 -21 -102 -4 -26 -12 -71 -19 -107 -4 -21 -12 -95 -21
-193 -5 -59 -6 -334 -1 -385 8 -75 17 -160 22 -190 14 -88 27 -159 46 -235 11
-47 21 -92 23 -100 2 -8 10 -34 19 -57 8 -24 13 -43 9 -43 -3 0 0 -6 6 -14 7
-8 14 -27 17 -42 3 -16 9 -33 14 -39 4 -5 9 -14 9 -20 2 -20 35 -105 41 -105
4 0 7 -6 7 -12 0 -18 74 -172 85 -176 4 -2 6 -8 2 -13 -3 -5 0 -9 5 -9 6 0 10
-3 9 -7 -3 -13 35 -83 44 -83 5 0 7 -4 4 -8 -3 -5 3 -18 12 -28 10 -10 18 -21
18 -24 1 -9 57 -95 66 -101 5 -3 9 -9 8 -13 -1 -7 5 -16 70 -100 16 -21 30
-43 30 -48 0 -5 4 -6 10 -3 5 3 10 0 10 -7 0 -7 24 -39 54 -70 29 -32 52 -59
51 -60 -1 -2 37 -41 84 -88 46 -47 81 -78 76 -70 -5 8 12 -7 38 -35 26 -27 47
-46 47 -41 0 5 10 -3 23 -17 12 -15 28 -27 35 -27 7 0 10 -4 7 -10 -3 -5 -1
-10 4 -10 6 0 22 -10 37 -23 14 -12 27 -20 28 -17 1 3 17 -10 36 -27 19 -18
47 -38 62 -44 16 -6 28 -15 28 -19 0 -4 18 -15 40 -26 22 -10 40 -23 40 -27 0
-5 4 -6 9 -3 5 3 12 -1 15 -10 3 -8 10 -12 16 -9 5 3 10 1 10 -6 0 -7 3 -10 6
-6 3 3 14 -2 25 -11 11 -9 22 -15 26 -14 3 2 9 0 12 -5 9 -12 71 -43 87 -43 8
0 14 -5 14 -11 0 -5 4 -8 9 -5 5 4 11 2 13 -3 1 -5 10 -11 18 -13 8 -2 17 -6
20 -9 14 -16 332 -132 393 -143 15 -2 30 -7 35 -10 5 -3 19 -7 33 -10 48 -10
71 -15 87 -20 9 -3 34 -8 56 -12 21 -3 48 -7 59 -10 166 -31 411 -44 612 -30
157 11 181 14 273 30 17 3 45 8 61 11 16 3 58 12 93 21 35 9 68 17 73 19 38 8
80 20 147 42 43 13 81 25 85 25 5 1 37 14 73 30 36 16 65 29 65 29 0 0 10 2
23 5 12 4 22 10 22 13 0 4 6 8 13 8 19 0 246 117 257 132 3 4 14 11 24 14 28
11 116 69 116 78 0 4 10 9 23 13 12 3 37 19 55 36 18 16 35 30 38 30 3 0 10 5
17 10 7 6 23 19 37 30 80 65 137 117 235 217 118 120 175 181 175 188 0 3 12
19 28 36 15 17 26 35 25 40 -2 5 1 9 6 9 4 0 32 35 60 78 28 42 59 87 67 99 9
12 14 24 12 27 -1 2 7 15 20 28 12 14 19 28 15 31 -3 4 -1 7 6 7 7 0 9 5 6 10
-3 6 -1 10 5 10 6 0 8 5 5 10 -3 6 -1 10 4 10 6 0 18 17 27 37 10 21 18 40 19
43 2 3 6 15 10 28 4 12 12 22 17 22 5 0 6 5 3 10 -3 6 -1 10 4 10 6 0 11 4 11
9 0 5 10 30 22 57 12 27 23 51 23 54 1 3 5 14 10 25 29 70 44 115 39 115 -4 0
-2 6 3 12 10 12 33 76 37 101 1 7 5 18 10 25 4 7 5 16 2 19 -3 3 -2 11 4 17 5
7 12 27 15 46 3 18 8 36 10 39 2 4 6 26 10 51 4 25 9 48 11 52 3 4 7 25 10 45
2 21 7 52 9 68 19 121 28 238 28 390 1 193 -8 303 -34 445 -6 30 -12 71 -15
90 -2 19 -13 67 -24 105 -11 39 -23 81 -26 95 -6 31 -45 151 -53 165 -3 6 -7
18 -8 28 -2 10 -12 38 -23 62 -11 24 -20 46 -20 49 0 11 -93 202 -105 216 -8
8 -14 18 -14 23 -1 15 -34 77 -41 77 -4 0 -10 10 -14 23 -3 12 -14 31 -24 42
-10 11 -18 22 -19 25 -2 15 -46 80 -54 80 -5 0 -8 4 -7 8 3 10 -27 55 -59 89
-12 13 -19 23 -16 23 3 0 -4 8 -15 19 -12 10 -22 23 -22 29 0 5 -13 20 -30 33
-16 13 -30 28 -30 33 0 5 -19 28 -42 50 -23 23 -41 45 -40 49 1 5 -2 6 -7 3
-5 -3 -15 2 -22 11 -12 14 -12 16 1 8 8 -5 0 6 -19 23 -18 18 -37 32 -42 32
-5 0 -9 7 -9 17 0 9 -3 14 -6 11 -3 -4 -22 10 -41 30 -20 21 -33 31 -28 24 4
-7 -14 8 -40 33 -47 45 -200 161 -220 166 -5 2 -21 13 -34 25 -14 13 -28 21
-33 18 -4 -3 -8 -1 -8 5 0 5 -10 13 -22 17 -13 4 -25 10 -28 13 -12 15 -91 61
-104 61 -8 0 -16 4 -18 9 -3 8 -168 91 -193 97 -20 5 -80 29 -85 34 -7 7 -190
71 -219 76 -13 3 -34 10 -45 16 -12 6 -22 10 -24 9 -1 -1 -19 1 -40 6 -48 9
-52 10 -54 13 -2 1 -12 3 -23 5 -11 1 -33 5 -50 9 -16 3 -41 8 -55 11 -14 3
-45 8 -70 11 -25 3 -54 8 -65 10 -55 10 -440 26 -448 17z"/>
</g>
</svg>
